<svg xmlns="http://www.w3.org/2000/svg" viewBox="0 0 100 100">
  <defs>
    <radialGradient id="hPetalGrad" cx="50%" cy="50%" r="50%" fx="50%" fy="90%">
      <stop offset="0%" style="stop-color:#C71585;stop-opacity:1" />
      <stop offset="60%" style="stop-color:#FF1493;stop-opacity:1" />
      <stop offset="100%" style="stop-color:#FF69B4;stop-opacity:1" />
    </radialGradient>
  </defs>
  
  <!-- Petals -->
  <g fill="url(#hPetalGrad)" stroke="#C71585" stroke-width="0.5">
    <path d="M50 50 C30 50, 10 20, 50 5 Z" transform="rotate(0 50 50)" />
    <path d="M50 50 C30 50, 10 20, 50 5 Z" transform="rotate(72 50 50)" />
    <path d="M50 50 C30 50, 10 20, 50 5 Z" transform="rotate(144 50 50)" />
    <path d="M50 50 C30 50, 10 20, 50 5 Z" transform="rotate(216 50 50)" />
    <path d="M50 50 C30 50, 10 20, 50 5 Z" transform="rotate(288 50 50)" />
  </g>
  
  <!-- Overlay for realistic texture/folds -->
  <g fill="none" stroke="#8B008B" stroke-width="0.2" opacity="0.5">
     <path d="M50 50 Q45 25 50 5" transform="rotate(0 50 50)" />
     <path d="M50 50 Q55 25 50 5" transform="rotate(0 50 50)" />
     <path d="M50 50 Q45 25 50 5" transform="rotate(72 50 50)" />
     <path d="M50 50 Q55 25 50 5" transform="rotate(72 50 50)" />
     <path d="M50 50 Q45 25 50 5" transform="rotate(144 50 50)" />
     <path d="M50 50 Q55 25 50 5" transform="rotate(144 50 50)" />
     <path d="M50 50 Q45 25 50 5" transform="rotate(216 50 50)" />
     <path d="M50 50 Q55 25 50 5" transform="rotate(216 50 50)" />
     <path d="M50 50 Q45 25 50 5" transform="rotate(288 50 50)" />
     <path d="M50 50 Q55 25 50 5" transform="rotate(288 50 50)" />
  </g>

  <!-- Stamen -->
  <path d="M50 50 Q60 40 65 25" stroke="#FFD700" stroke-width="2" fill="none" stroke-linecap="round"/>
  <!-- Anthers -->
  <g fill="#FFFF00">
    <circle cx="65" cy="25" r="2" />
    <circle cx="63" cy="28" r="1.5" />
    <circle cx="67" cy="28" r="1.5" />
    <circle cx="64" cy="23" r="1.5" />
    <circle cx="66" cy="23" r="1.5" />
  </g>
  
  <!-- Deep Center -->
  <circle cx="50" cy="50" r="5" fill="#800000" opacity="0.8" />
</svg>
