<svg xmlns="http://www.w3.org/2000/svg" viewBox="0 0 100 100">
  <defs>
    <radialGradient id="sfCenter" cx="50%" cy="50%" r="50%" fx="50%" fy="50%">
      <stop offset="60%" style="stop-color:#3E2723;stop-opacity:1" />
      <stop offset="100%" style="stop-color:#5D4037;stop-opacity:1" />
    </radialGradient>
  </defs>

  <!-- Back Row Petals -->
  <g fill="#FFD700" stroke="#DAA520" stroke-width="0.5">
    <circle cx="50" cy="12" r="8" transform="rotate(10 50 50)" />
    <circle cx="50" cy="12" r="8" transform="rotate(30 50 50)" />
    <circle cx="50" cy="12" r="8" transform="rotate(50 50 50)" />
    <circle cx="50" cy="12" r="8" transform="rotate(70 50 50)" />
    <circle cx="50" cy="12" r="8" transform="rotate(90 50 50)" />
    <circle cx="50" cy="12" r="8" transform="rotate(110 50 50)" />
    <circle cx="50" cy="12" r="8" transform="rotate(130 50 50)" />
    <circle cx="50" cy="12" r="8" transform="rotate(150 50 50)" />
    <circle cx="50" cy="12" r="8" transform="rotate(170 50 50)" />
    <circle cx="50" cy="12" r="8" transform="rotate(190 50 50)" />
    <circle cx="50" cy="12" r="8" transform="rotate(210 50 50)" />
    <circle cx="50" cy="12" r="8" transform="rotate(230 50 50)" />
    <circle cx="50" cy="12" r="8" transform="rotate(250 50 50)" />
    <circle cx="50" cy="12" r="8" transform="rotate(270 50 50)" />
    <circle cx="50" cy="12" r="8" transform="rotate(290 50 50)" />
    <circle cx="50" cy="12" r="8" transform="rotate(310 50 50)" />
    <circle cx="50" cy="12" r="8" transform="rotate(330 50 50)" />
    <circle cx="50" cy="12" r="8" transform="rotate(350 50 50)" />
  </g>
  
  <!-- Front Row Petals (slightly lighter) -->
  <g fill="#FFEC8B" stroke="#DAA520" stroke-width="0.5">
    <ellipse cx="50" cy="15" rx="5" ry="12" transform="rotate(0 50 50)" />
    <ellipse cx="50" cy="15" rx="5" ry="12" transform="rotate(20 50 50)" />
    <ellipse cx="50" cy="15" rx="5" ry="12" transform="rotate(40 50 50)" />
    <ellipse cx="50" cy="15" rx="5" ry="12" transform="rotate(60 50 50)" />
    <ellipse cx="50" cy="15" rx="5" ry="12" transform="rotate(80 50 50)" />
    <ellipse cx="50" cy="15" rx="5" ry="12" transform="rotate(100 50 50)" />
    <ellipse cx="50" cy="15" rx="5" ry="12" transform="rotate(120 50 50)" />
    <ellipse cx="50" cy="15" rx="5" ry="12" transform="rotate(140 50 50)" />
    <ellipse cx="50" cy="15" rx="5" ry="12" transform="rotate(160 50 50)" />
    <ellipse cx="50" cy="15" rx="5" ry="12" transform="rotate(180 50 50)" />
    <ellipse cx="50" cy="15" rx="5" ry="12" transform="rotate(200 50 50)" />
    <ellipse cx="50" cy="15" rx="5" ry="12" transform="rotate(220 50 50)" />
    <ellipse cx="50" cy="15" rx="5" ry="12" transform="rotate(240 50 50)" />
    <ellipse cx="50" cy="15" rx="5" ry="12" transform="rotate(260 50 50)" />
    <ellipse cx="50" cy="15" rx="5" ry="12" transform="rotate(280 50 50)" />
    <ellipse cx="50" cy="15" rx="5" ry="12" transform="rotate(300 50 50)" />
    <ellipse cx="50" cy="15" rx="5" ry="12" transform="rotate(320 50 50)" />
    <ellipse cx="50" cy="15" rx="5" ry="12" transform="rotate(340 50 50)" />
  </g>

  <!-- Center -->
  <circle cx="50" cy="50" r="28" fill="url(#sfCenter)" stroke="#3E2723" stroke-width="1" />
  
  <!-- Seed Texture -->
  <g fill="#251610" opacity="0.4">
    <circle cx="50" cy="50" r="2" />
    <circle cx="55" cy="50" r="2" />
    <circle cx="45" cy="50" r="2" />
    <circle cx="50" cy="55" r="2" />
    <circle cx="50" cy="45" r="2" />
    
    <circle cx="60" cy="50" r="1.5" />
    <circle cx="40" cy="50" r="1.5" />
    <circle cx="50" cy="60" r="1.5" />
    <circle cx="50" cy="40" r="1.5" />
    
     <circle cx="58" cy="58" r="1.5" />
     <circle cx="42" cy="42" r="1.5" />
     <circle cx="58" cy="42" r="1.5" />
     <circle cx="42" cy="58" r="1.5" />
  </g>

</svg>
