<svg xmlns="http://www.w3.org/2000/svg" viewBox="0 0 100 100">
  <!-- Petals -->
  <g fill="#FFD700">
    <circle cx="50" cy="15" r="10" />
    <circle cx="50" cy="85" r="10" />
    <circle cx="15" cy="50" r="10" />
    <circle cx="85" cy="50" r="10" />
    <circle cx="25" cy="25" r="10" />
    <circle cx="75" cy="75" r="10" />
    <circle cx="25" cy="75" r="10" />
    <circle cx="75" cy="25" r="10" />
    <!-- More petals between -->
    <circle cx="38" cy="18" r="9" />
    <circle cx="62" cy="18" r="9" />
    <circle cx="38" cy="82" r="9" />
    <circle cx="62" cy="82" r="9" />
    <circle cx="18" cy="38" r="9" />
    <circle cx="82" cy="38" r="9" />
    <circle cx="18" cy="62" r="9" />
    <circle cx="82" cy="62" r="9" />
  </g>
  <!-- Center -->
  <circle cx="50" cy="50" r="25" fill="#8B4513" stroke="#5D4037" stroke-width="2" />
  
  <!-- Face -->
  <g fill="#FFF">
    <!-- Eyes -->
    <circle cx="42" cy="45" r="3" />
    <circle cx="58" cy="45" r="3" />
    <!-- Smile -->
    <path d="M40 55 Q50 65 60 55" stroke="#FFF" stroke-width="2" fill="none" stroke-linecap="round" />
  </g>
  
  <!-- Cheeks -->
  <circle cx="38" cy="52" r="2" fill="#FFA07A" opacity="0.6" />
  <circle cx="62" cy="52" r="2" fill="#FFA07A" opacity="0.6" />
</svg>
